<svg xmlns="http://www.w3.org/2000/svg" width="6592" height="2600" preserveAspectRatio="xMidYMid meet" version="1.0" viewBox="0 0 4944 1950"><metadata>Created by potrace 1.16, written by Peter Selinger 2001-2019</metadata><g fill="#000" stroke="none"><path d="M8119 17866 c-255 -244 -776 -780 -1041 -1071 -1184 -1297 -2619 -3220 -3493 -4679 -650 -1087 -1130 -2076 -1488 -3066 -142 -393 -229 -674 -311 -1008 -388 -1569 -236 -3067 432 -4247 79 -140 267 -416 378 -555 139 -174 480 -515 652 -652 774 -616 1793 -1010 2947 -1137 375 -42 468 -46 1025 -46 581 0 765 9 1245 61 519 56 1248 184 1870 329 1408 328 3160 942 4660 1632 143 66 330 152 415 191 85 39 5625 2488 12310 5443 6685 2954 12333 5450 12550 5546 217 96 1887 834 3710 1640 4053 1791 3898 1723 3883 1723 -6 0 -355 -94 -775 -209 -2812 -771 -6807 -1862 -9963 -2720 -2696 -733 -5416 -1475 -7180 -1960 -781 -214 -1829 -502 -2330 -640 -1216 -333 -2766 -757 -3830 -1046 -2059 -559 -3091 -840 -3860 -1051 -2236 -614 -5230 -1419 -5630 -1514 -848 -201 -1414 -300 -2090 -366 -227 -22 -853 -30 -1097 -15 -865 55 -1648 246 -2273 554 -680 335 -1167 752 -1540 1317 -402 609 -587 1222 -626 2080 -21 471 25 979 141 1560 227 1134 641 2261 1386 3779 96 195 173 356 171 358 -2 1 -113 -102 -248 -231z" transform="translate(0.000000,1950.000000) scale(0.100000,-0.100000)"/></g></svg>